<svg xmlns="http://www.w3.org/2000/svg" viewBox="0 0 1000 900"><defs>
<linearGradient id="top" x1="0" y1="0" x2=".9" y2="1"><stop stop-color="#606772"/><stop offset=".16" stop-color="#30353d"/><stop offset=".64" stop-color="#171b21"/><stop offset="1" stop-color="#282f3a"/></linearGradient>
<linearGradient id="front" x1="0" y1="0" x2="0" y2="1"><stop stop-color="#12151b"/><stop offset=".75" stop-color="#07080c"/><stop offset="1" stop-color="#151d35"/></linearGradient>
<linearGradient id="side"><stop stop-color="#191e29"/><stop offset=".7" stop-color="#090c14"/><stop offset="1" stop-color="#101b3d"/></linearGradient>
<linearGradient id="inner" x1="0" y1="0" x2="0" y2="1"><stop stop-color="#0d1738"/><stop offset=".7" stop-color="#1338c7"/><stop offset="1" stop-color="#3264ff"/></linearGradient>
<radialGradient id="well"><stop stop-color="#081438"/><stop offset=".6" stop-color="#0c2581"/><stop offset="1" stop-color="#214dff"/></radialGradient>
<linearGradient id="channel"><stop stop-color="#112883"/><stop offset=".4" stop-color="#3769ff"/><stop offset=".7" stop-color="#759eff"/><stop offset="1" stop-color="#153ed4"/></linearGradient>
<linearGradient id="glassTop" x1="0" y1="1" x2="1" y2="0"><stop stop-color="#718dcc" stop-opacity=".2"/><stop offset=".32" stop-color="#789bd4" stop-opacity=".45"/><stop offset=".5" stop-color="#8fd5ee" stop-opacity=".65"/><stop offset=".55" stop-color="#d7b2db" stop-opacity=".7"/><stop offset=".61" stop-color="#626bad" stop-opacity=".3"/><stop offset="1" stop-color="#a7cfff" stop-opacity=".45"/></linearGradient>
<linearGradient id="glassSide"><stop stop-color="#143383" stop-opacity=".6"/><stop offset=".5" stop-color="#68859b" stop-opacity=".4"/><stop offset="1" stop-color="#749fff" stop-opacity=".6"/></linearGradient>
<radialGradient id="halo"><stop stop-color="#133cff" stop-opacity=".16"/><stop offset="1" stop-color="#030303" stop-opacity="0"/></radialGradient>
<filter id="glow"><feGaussianBlur stdDeviation="5"/></filter>
<filter id="shadow" x="-35%" y="-30%" width="175%" height="180%"><feDropShadow dx="10" dy="32" stdDeviation="22" flood-color="#000" flood-opacity=".8"/></filter>
</defs><ellipse cx="540" cy="480" rx="440" ry="390" fill="url(#halo)"/><g filter="url(#shadow)"><polygon points="716.55,285.50 915.00,378.60 915.00,248.60 716.55,155.50" fill="url(#front)" stroke="#343941" stroke-width="0.8" stroke-linejoin="round"/><polygon points="951.45,361.50 915.00,378.60 915.00,248.60 951.45,231.50" fill="url(#side)" stroke="#343941" stroke-width="0.8" stroke-linejoin="round"/><polygon points="753.00,138.40 951.45,231.50 915.00,248.60 716.55,155.50" fill="url(#top)" stroke="#424a55" stroke-width="0.75" stroke-linejoin="round"/><polygon points="554.55,361.50 591.00,378.60 591.00,248.60 554.55,231.50" fill="url(#front)" stroke="#343941" stroke-width="0.8" stroke-linejoin="round"/><polygon points="753.00,302.60 591.00,378.60 591.00,248.60 753.00,172.60" fill="url(#side)" stroke="#343941" stroke-width="0.8" stroke-linejoin="round"/><polygon points="716.55,155.50 753.00,172.60 591.00,248.60 554.55,231.50" fill="url(#top)" stroke="#424a55" stroke-width="0.75" stroke-linejoin="round"/><polygon points="753.00,294.60 878.55,353.50 753.00,412.40 627.45,353.50" fill="url(#well)" stroke="#184eff" stroke-width="1" stroke-linejoin="round"/><polygon points="753.00,172.60 878.55,231.50 878.55,353.50 753.00,294.60" fill="url(#inner)" stroke="#284a9b" stroke-width="0.8" stroke-linejoin="round"/><polygon points="753.00,294.60 627.45,353.50 627.45,231.50 753.00,172.60" fill="url(#inner)" stroke="#244582" stroke-width="0.8" stroke-linejoin="round"/><polygon points="716.55,437.50 753.00,454.60 753.00,324.60 716.55,307.50" fill="url(#front)" stroke="#343941" stroke-width="0.8" stroke-linejoin="round"/><polygon points="915.00,378.60 753.00,454.60 753.00,324.60 915.00,248.60" fill="url(#side)" stroke="#343941" stroke-width="0.8" stroke-linejoin="round"/><polygon points="878.55,231.50 915.00,248.60 753.00,324.60 716.55,307.50" fill="url(#top)" stroke="#424a55" stroke-width="0.75" stroke-linejoin="round"/><polygon points="591.00,378.60 716.55,437.50 716.55,307.50 591.00,248.60" fill="url(#front)" stroke="#343941" stroke-width="0.8" stroke-linejoin="round"/><polygon points="753.00,420.40 716.55,437.50 716.55,307.50 753.00,290.40" fill="url(#side)" stroke="#343941" stroke-width="0.8" stroke-linejoin="round"/><polygon points="627.45,231.50 753.00,290.40 716.55,307.50 591.00,248.60" fill="url(#top)" stroke="#424a55" stroke-width="0.75" stroke-linejoin="round"/><polyline points="753.00,294.40 870.45,349.50 753.00,404.60" fill="none" stroke="#456aff" stroke-width="3" filter="url(#glow)"/><polyline points="753.00,294.40 870.45,349.50 753.00,404.60" fill="none" stroke="#7d9dff" stroke-width="1.4"/><polygon points="433.05,467.74 502.71,500.42 502.71,455.42 433.05,422.74" fill="url(#front)" stroke="#343941" stroke-width="0.8" stroke-linejoin="round"/><polygon points="684.96,414.92 502.71,500.42 502.71,455.42 684.96,369.92" fill="url(#side)" stroke="#343941" stroke-width="0.8" stroke-linejoin="round"/><polygon points="615.30,337.24 684.96,369.92 502.71,455.42 433.05,422.74" fill="url(#top)" stroke="#424a55" stroke-width="0.75" stroke-linejoin="round"/><polygon points="625.83,341.70 642.84,349.68 477.60,427.20 460.59,419.22" fill="url(#channel)" stroke="#496eff" stroke-width="0.8" stroke-linejoin="round"/><polygon points="235.41,309.22 421.71,396.62 421.71,293.62 235.41,206.22" fill="url(#front)" stroke="#343941" stroke-width="0.8" stroke-linejoin="round"/><polygon points="457.35,379.90 421.71,396.62 421.71,293.62 457.35,276.90" fill="url(#side)" stroke="#343941" stroke-width="0.8" stroke-linejoin="round"/><polygon points="271.05,189.50 457.35,276.90 421.71,293.62 235.41,206.22" fill="url(#top)" stroke="#424a55" stroke-width="0.75" stroke-linejoin="round"/><polygon points="72.60,385.60 108.24,402.32 108.24,299.32 72.60,282.60" fill="url(#front)" stroke="#343941" stroke-width="0.8" stroke-linejoin="round"/><polygon points="271.05,325.94 108.24,402.32 108.24,299.32 271.05,222.94" fill="url(#side)" stroke="#343941" stroke-width="0.8" stroke-linejoin="round"/><polygon points="235.41,206.22 271.05,222.94 108.24,299.32 72.60,282.60" fill="url(#top)" stroke="#424a55" stroke-width="0.75" stroke-linejoin="round"/><polygon points="271.05,317.94 386.07,371.90 258.90,431.56 143.88,377.60" fill="url(#well)" stroke="#184eff" stroke-width="1" stroke-linejoin="round"/><polygon points="271.05,222.94 386.07,276.90 386.07,371.90 271.05,317.94" fill="url(#inner)" stroke="#284a9b" stroke-width="0.8" stroke-linejoin="round"/><polygon points="271.05,317.94 143.88,377.60 143.88,282.60 271.05,222.94" fill="url(#inner)" stroke="#244582" stroke-width="0.8" stroke-linejoin="round"/><polygon points="223.26,456.28 258.90,473.00 258.90,370.00 223.26,353.28" fill="url(#front)" stroke="#343941" stroke-width="0.8" stroke-linejoin="round"/><polygon points="421.71,396.62 258.90,473.00 258.90,370.00 421.71,293.62" fill="url(#side)" stroke="#343941" stroke-width="0.8" stroke-linejoin="round"/><polygon points="386.07,276.90 421.71,293.62 258.90,370.00 223.26,353.28" fill="url(#top)" stroke="#424a55" stroke-width="0.75" stroke-linejoin="round"/><polygon points="108.24,402.32 223.26,456.28 223.26,353.28 108.24,299.32" fill="url(#front)" stroke="#343941" stroke-width="0.8" stroke-linejoin="round"/><polygon points="258.90,439.56 223.26,456.28 223.26,353.28 258.90,336.56" fill="url(#side)" stroke="#343941" stroke-width="0.8" stroke-linejoin="round"/><polygon points="143.88,282.60 258.90,336.56 223.26,353.28 108.24,299.32" fill="url(#top)" stroke="#424a55" stroke-width="0.75" stroke-linejoin="round"/><polyline points="271.05,317.74 377.97,367.90 258.90,423.76" fill="none" stroke="#456aff" stroke-width="3" filter="url(#glow)"/><polyline points="271.05,317.74 377.97,367.90 258.90,423.76" fill="none" stroke="#7d9dff" stroke-width="1.4"/><polygon points="326.13,436.46 528.63,531.46 528.63,472.46 326.13,377.46" fill="url(#front)" stroke="#343941" stroke-width="0.8" stroke-linejoin="round"/><polygon points="588.57,503.34 528.63,531.46 528.63,472.46 588.57,444.34" fill="url(#side)" stroke="#343941" stroke-width="0.8" stroke-linejoin="round"/><polygon points="386.07,349.34 588.57,444.34 528.63,472.46 326.13,377.46" fill="url(#top)" stroke="#424a55" stroke-width="0.75" stroke-linejoin="round"/><polygon points="373.11,354.42 575.61,449.42 564.27,454.74 361.77,359.74" fill="url(#channel)" stroke="#4563dc" stroke-width="0.8" stroke-linejoin="round"/><polygon points="330.99,512.78 590.19,634.38 590.19,499.38 330.99,377.78" fill="url(#front)" stroke="#343941" stroke-width="0.8" stroke-linejoin="round"/><polygon points="630.69,615.38 590.19,634.38 590.19,499.38 630.69,480.38" fill="url(#side)" stroke="#343941" stroke-width="0.8" stroke-linejoin="round"/><polygon points="371.49,358.78 630.69,480.38 590.19,499.38 330.99,377.78" fill="url(#top)" stroke="#424a55" stroke-width="0.75" stroke-linejoin="round"/><polygon points="144.69,600.18 185.19,619.18 185.19,484.18 144.69,465.18" fill="url(#front)" stroke="#343941" stroke-width="0.8" stroke-linejoin="round"/><polygon points="371.49,531.78 185.19,619.18 185.19,484.18 371.49,396.78" fill="url(#side)" stroke="#343941" stroke-width="0.8" stroke-linejoin="round"/><polygon points="330.99,377.78 371.49,396.78 185.19,484.18 144.69,465.18" fill="url(#top)" stroke="#424a55" stroke-width="0.75" stroke-linejoin="round"/><polygon points="371.49,523.78 549.69,607.38 403.89,675.78 225.69,592.18" fill="url(#well)" stroke="#184eff" stroke-width="1" stroke-linejoin="round"/><polygon points="371.49,396.78 549.69,480.38 549.69,607.38 371.49,523.78" fill="url(#inner)" stroke="#284a9b" stroke-width="0.8" stroke-linejoin="round"/><polygon points="371.49,523.78 225.69,592.18 225.69,465.18 371.49,396.78" fill="url(#inner)" stroke="#244582" stroke-width="0.8" stroke-linejoin="round"/><polygon points="363.39,702.78 403.89,721.78 403.89,586.78 363.39,567.78" fill="url(#front)" stroke="#343941" stroke-width="0.8" stroke-linejoin="round"/><polygon points="590.19,634.38 403.89,721.78 403.89,586.78 590.19,499.38" fill="url(#side)" stroke="#343941" stroke-width="0.8" stroke-linejoin="round"/><polygon points="549.69,480.38 590.19,499.38 403.89,586.78 363.39,567.78" fill="url(#top)" stroke="#424a55" stroke-width="0.75" stroke-linejoin="round"/><polygon points="185.19,619.18 363.39,702.78 363.39,567.78 185.19,484.18" fill="url(#front)" stroke="#343941" stroke-width="0.8" stroke-linejoin="round"/><polygon points="403.89,683.78 363.39,702.78 363.39,567.78 403.89,548.78" fill="url(#side)" stroke="#343941" stroke-width="0.8" stroke-linejoin="round"/><polygon points="225.69,465.18 403.89,548.78 363.39,567.78 185.19,484.18" fill="url(#top)" stroke="#424a55" stroke-width="0.75" stroke-linejoin="round"/><polyline points="371.49,523.58 541.59,603.38 403.89,667.98" fill="none" stroke="#456aff" stroke-width="3" filter="url(#glow)"/><polyline points="371.49,523.58 541.59,603.38 403.89,667.98" fill="none" stroke="#7d9dff" stroke-width="1.4"/><polygon points="250.80,451.16 358.53,501.70 358.53,473.70 250.80,423.16" fill="url(#glassSide)" stroke="#343941" stroke-width="0.8" stroke-linejoin="round"/><polygon points="390.93,486.50 358.53,501.70 358.53,473.70 390.93,458.50" fill="url(#glassSide)" stroke="#343941" stroke-width="0.8" stroke-linejoin="round"/><polygon points="283.20,407.96 390.93,458.50 358.53,473.70 250.80,423.16" fill="url(#glassTop)" stroke="#839dc6" stroke-width="1.3" stroke-linejoin="round"/><polygon points="680.10,203.04 804.03,261.18 804.03,239.18 680.10,181.04" fill="url(#glassSide)" stroke="#343941" stroke-width="0.8" stroke-linejoin="round"/><polygon points="840.48,244.08 804.03,261.18 804.03,239.18 840.48,222.08" fill="url(#glassSide)" stroke="#343941" stroke-width="0.8" stroke-linejoin="round"/><polygon points="716.55,163.94 840.48,222.08 804.03,239.18 680.10,181.04" fill="url(#glassTop)" stroke="#839dc6" stroke-width="1.3" stroke-linejoin="round"/><polygon points="560.22,479.76 569.94,484.32 567.51,485.46 557.79,480.90" fill="#4d535e" stroke="none" stroke-width="0.8" stroke-linejoin="round"/><polygon points="550.50,484.32 560.22,488.88 557.79,490.02 548.07,485.46" fill="#4d535e" stroke="none" stroke-width="0.8" stroke-linejoin="round"/><polygon points="540.78,488.88 550.50,493.44 548.07,494.58 538.35,490.02" fill="#4d535e" stroke="none" stroke-width="0.8" stroke-linejoin="round"/><polygon points="531.06,493.44 540.78,498.00 538.35,499.14 528.63,494.58" fill="#4d535e" stroke="none" stroke-width="0.8" stroke-linejoin="round"/><polygon points="521.34,498.00 531.06,502.56 528.63,503.70 518.91,499.14" fill="#4d535e" stroke="none" stroke-width="0.8" stroke-linejoin="round"/><polygon points="511.62,502.56 521.34,507.12 518.91,508.26 509.19,503.70" fill="#4d535e" stroke="none" stroke-width="0.8" stroke-linejoin="round"/><polygon points="501.90,507.12 511.62,511.68 509.19,512.82 499.47,508.26" fill="#4d535e" stroke="none" stroke-width="0.8" stroke-linejoin="round"/></g></svg>